<svg width="1018" height="174" viewBox="0 0 1018 174" fill="none" xmlns="http://www.w3.org/2000/svg">
<path d="M50.358 27.5665C47.6374 25.9238 44.737 24.7175 41.657 23.9475C38.577 23.1261 34.881 22.5615 30.569 22.2535C30.2097 22.2021 29.8504 22.1765 29.491 22.1765C29.183 22.1251 28.875 22.0995 28.567 22.0995C27.489 22.0995 26.95 22.5358 26.95 23.4085C26.95 23.9218 27.2324 24.2811 27.797 24.4865C28.413 24.6405 29.2344 24.7688 30.261 24.8715C32.263 25.1281 34.3677 25.4361 36.575 25.7955C38.7824 26.1035 40.9384 26.5911 43.043 27.2585C45.1477 27.9258 47.047 28.9011 48.741 30.1845C50.4864 31.4678 51.8467 33.1618 52.822 35.2665C53.8487 37.3711 54.362 40.0148 54.362 43.1975C54.362 46.7395 53.5407 49.7168 51.898 52.1295C50.2554 54.4908 48.0224 56.3901 45.199 57.8275C42.427 59.2135 39.2444 60.2145 35.651 60.8305C32.109 61.4465 28.4387 61.7545 24.64 61.7545C20.2254 61.8058 15.8364 61.5491 11.473 60.9845C7.16102 60.4711 3.33669 59.8038 2.34582e-05 58.9825L2.15602 31.8785C3.33669 32.7511 4.74836 33.7008 6.39102 34.7275C8.03369 35.7028 10.2667 36.6011 13.09 37.4225C15.9134 38.2438 19.635 38.8855 24.255 39.3475C24.5117 39.3988 24.7427 39.4245 24.948 39.4245C25.2047 39.4245 25.4357 39.4245 25.641 39.4245C26.2057 39.4245 26.6164 39.3475 26.873 39.1935C27.181 39.0395 27.335 38.7058 27.335 38.1925C27.335 37.6278 27.0784 37.2685 26.565 37.1145C26.103 36.9605 25.3587 36.8065 24.332 36.6525C21.56 36.3445 18.788 35.9081 16.016 35.3435C13.2954 34.7788 10.8057 33.9061 8.54702 32.7255C6.28836 31.5448 4.46602 29.9021 3.08002 27.7975C1.74536 25.6928 1.07802 22.9465 1.07802 19.5585C1.07802 14.7331 2.20736 10.9088 4.46602 8.08546C6.77602 5.21079 9.88169 3.15746 13.783 1.92546C17.6844 0.642126 22.0477 0.000459909 26.873 0.000459909C30.9284 0.000459909 35.1634 0.38546 39.578 1.15546C43.9927 1.87413 48.356 2.87512 52.668 4.15846L50.358 27.5665ZM111.015 1.23246V24.1015H96.1538V60.5225H70.5128V24.1015H55.5748V1.23246H111.015ZM169.762 44.5065C168.941 49.8965 166.092 54.1315 161.215 57.2115C156.338 60.2401 149.947 61.7545 142.042 61.7545C134.137 61.7545 127.746 60.2401 122.869 57.2115C118.044 54.1828 115.195 49.9991 114.322 44.6605C114.117 43.2231 113.937 41.2981 113.783 38.8855C113.68 36.4215 113.629 33.7778 113.629 30.9545C113.629 28.2338 113.68 25.7185 113.783 23.4085C113.937 21.0471 114.117 19.1991 114.322 17.8645C115.195 12.2178 118.069 7.82879 122.946 4.69746C127.823 1.56613 134.188 0.000459909 142.042 0.000459909C149.947 0.000459909 156.338 1.56613 161.215 4.69746C166.092 7.77746 168.941 12.0638 169.762 17.5565C169.968 18.8911 170.122 20.7391 170.224 23.1005C170.378 25.4105 170.455 27.9515 170.455 30.7235C170.455 33.6495 170.378 36.3188 170.224 38.7315C170.122 41.1441 169.968 43.0691 169.762 44.5065ZM144.121 40.9645V20.7905C144.121 19.4045 143.428 18.7115 142.042 18.7115C140.656 18.7115 139.963 19.4045 139.963 20.7905V40.9645C139.963 42.3505 140.656 43.0435 142.042 43.0435C143.428 43.0435 144.121 42.3505 144.121 40.9645ZM197.976 60.5225H173.721V1.23246H209.68C212.965 1.23246 215.968 1.87412 218.689 3.15746C221.461 4.38946 223.668 6.57113 225.311 9.70246C226.954 12.7825 227.775 17.0688 227.775 22.5615C227.775 27.9515 226.928 32.2378 225.234 35.4205C223.54 38.5518 221.307 40.8105 218.535 42.1965C215.814 43.5311 212.863 44.1985 209.68 44.1985H197.976V60.5225ZM203.982 20.7135H196.59V24.8715H204.213C204.624 24.8715 205.06 24.7431 205.522 24.4865C206.035 24.2298 206.292 23.6908 206.292 22.8695C206.292 21.9968 206.01 21.4321 205.445 21.1755C204.88 20.8675 204.393 20.7135 203.982 20.7135ZM273.588 60.5225H250.719L252.105 1.23246H281.904L285.138 21.1755H285.831L289.065 1.23246H318.633L320.019 60.5225H297.15V29.7225H296.457L291.606 60.5225H279.132L274.281 28.9525H273.588V60.5225ZM379.256 44.5065C378.435 49.8965 375.586 54.1315 370.709 57.2115C365.833 60.2401 359.442 61.7545 351.536 61.7545C343.631 61.7545 337.24 60.2401 332.363 57.2115C327.538 54.1828 324.689 49.9991 323.816 44.6605C323.611 43.2231 323.431 41.2981 323.277 38.8855C323.175 36.4215 323.123 33.7778 323.123 30.9545C323.123 28.2338 323.175 25.7185 323.277 23.4085C323.431 21.0471 323.611 19.1991 323.816 17.8645C324.689 12.2178 327.564 7.82879 332.44 4.69746C337.317 1.56613 343.682 0.000459909 351.536 0.000459909C359.442 0.000459909 365.833 1.56613 370.709 4.69746C375.586 7.77746 378.435 12.0638 379.256 17.5565C379.462 18.8911 379.616 20.7391 379.718 23.1005C379.872 25.4105 379.949 27.9515 379.949 30.7235C379.949 33.6495 379.872 36.3188 379.718 38.7315C379.616 41.1441 379.462 43.0691 379.256 44.5065ZM353.615 40.9645V20.7905C353.615 19.4045 352.922 18.7115 351.536 18.7115C350.15 18.7115 349.457 19.4045 349.457 20.7905V40.9645C349.457 42.3505 350.15 43.0435 351.536 43.0435C352.922 43.0435 353.615 42.3505 353.615 40.9645ZM423.732 60.5225H391.007L378.225 1.23246H403.943L407.023 40.6565H407.716L410.719 1.23246H436.437L423.732 60.5225ZM463.265 60.5995L439.01 60.5225V1.23246H463.265V60.5995ZM489.85 60.5225H466.981V1.23246H494.008L499.167 22.7925H499.86L499.552 1.23246H522.421V60.5225H497.473L490.158 32.8025H489.465L489.85 60.5225ZM582.3 17.5565V19.8665L558.045 22.6385V21.2525C558.045 19.4045 557.121 18.4805 555.273 18.4805C553.425 18.4805 552.501 19.4045 552.501 21.2525V40.1945C552.501 42.0425 553.425 42.9665 555.273 42.9665C557.121 42.9665 558.045 42.0425 558.045 40.1945V37.8075H555.273V24.7175H582.3V43.7365C582.3 49.3831 579.862 53.7978 574.985 56.9805C570.108 60.1631 563.307 61.7545 554.58 61.7545C546.521 61.7545 539.976 60.1888 534.945 57.0575C529.966 53.8748 527.04 49.4858 526.167 43.8905C525.962 42.4531 525.782 40.5795 525.628 38.2695C525.525 35.9595 525.474 33.3928 525.474 30.5695C525.474 27.9001 525.525 25.4618 525.628 23.2545C525.782 20.9958 525.962 19.1991 526.167 17.8645C527.04 12.2178 529.991 7.82879 535.022 4.69746C540.053 1.56613 546.572 0.000459909 554.58 0.000459909C563.101 0.000459909 569.8 1.56613 574.677 4.69746C579.554 7.77746 582.095 12.0638 582.3 17.5565ZM636.674 31.7245L661.853 33.1875V43.8135C661.853 49.3575 659.338 53.6951 654.307 56.8265C649.328 59.9578 642.372 61.5235 633.44 61.5235C628.255 61.5235 623.661 60.8305 619.657 59.4445C615.653 58.0585 612.445 56.0565 610.032 53.4385C607.619 50.7691 606.182 47.5608 605.72 43.8135C605.566 42.4275 605.438 40.6051 605.335 38.3465C605.232 36.0365 605.181 33.5211 605.181 30.8005C605.181 28.0798 605.232 25.5901 605.335 23.3315C605.438 21.0728 605.566 19.2505 605.72 17.8645C606.182 14.0658 607.619 10.8575 610.032 8.23946C612.445 5.57013 615.653 3.54246 619.657 2.15646C623.661 0.719127 628.255 0.000459909 633.44 0.000459909C639.292 0.000459909 644.323 0.719127 648.532 2.15646C652.793 3.59379 656.078 5.64713 658.388 8.31646C660.698 10.9345 661.853 14.1171 661.853 17.8645V24.8715L636.674 27.5665V21.3295C636.674 19.9435 635.981 19.2505 634.595 19.2505C633.209 19.2505 632.516 19.9435 632.516 21.3295V40.0405C632.516 41.4265 633.209 42.1195 634.595 42.1195C635.981 42.1195 636.674 41.4265 636.674 40.0405V31.7245ZM689.377 1.23246V36.9605H712.939V60.5225H665.122V1.23246H689.377ZM715.496 1.23246H740.444V39.8865C740.444 40.0405 740.521 40.4255 740.675 41.0415C740.88 41.6575 741.496 41.9655 742.523 41.9655C743.55 41.9655 744.14 41.6575 744.294 41.0415C744.499 40.4255 744.602 40.0405 744.602 39.8865V1.23246H769.55V40.9645C769.55 43.7878 769.088 46.4571 768.164 48.9725C767.24 51.4365 765.726 53.6438 763.621 55.5945C761.516 57.4938 758.667 59.0081 755.074 60.1375C751.532 61.2155 747.117 61.7545 741.83 61.7545C737.159 61.7545 733.155 61.1898 729.818 60.0605C726.481 58.9311 723.761 57.3911 721.656 55.4405C719.551 53.4898 717.986 51.2825 716.959 48.8185C715.984 46.3545 715.496 43.7878 715.496 41.1185V1.23246ZM827.776 1.23246V24.1015H812.915V60.5225H787.274V24.1015H772.336V1.23246H827.776ZM885.677 1.23246V24.1015H870.816V60.5225H845.175V24.1015H830.237V1.23246H885.677ZM913.008 37.2685V40.4255H936.57V60.5225H888.753V1.23246H935.184V18.5575H913.008V21.7145H933.105V37.2685H913.008ZM963.765 60.5225H939.51V1.23246H974.776C978.061 1.23246 981.064 1.82279 983.785 3.00346C986.557 4.18412 988.764 6.08346 990.407 8.70146C992.05 11.3195 992.871 14.8101 992.871 19.1735C992.871 20.4055 992.768 21.7401 992.563 23.1775C992.409 24.6148 992.024 26.0521 991.408 27.4895C990.792 28.8755 989.842 30.1331 988.559 31.2625C987.327 32.3405 985.633 33.1875 983.477 33.8035L995.643 60.5225H968.616L964.458 44.6605H963.765V60.5225ZM969.078 20.1745H961.686V24.3325H969.309C969.72 24.3325 970.156 24.2041 970.618 23.9475C971.131 23.6908 971.388 23.1518 971.388 22.3305C971.388 21.4578 971.106 20.8931 970.541 20.6365C969.976 20.3285 969.489 20.1745 969.078 20.1745ZM1017.12 48.8185V54.9785C1017.12 56.9291 1016.33 58.5975 1014.73 59.9835C1013.14 61.3695 1010.6 62.0625 1007.11 62.0625C1003.67 62.0625 1001.13 61.3438 999.488 59.9065C997.845 58.4691 997.024 56.7751 997.024 54.8245V48.7415C997.024 46.7908 997.845 45.0968 999.488 43.6595C1001.13 42.2221 1003.67 41.5035 1007.11 41.5035C1010.6 41.5035 1013.14 42.1965 1014.73 43.5825C1016.33 44.9685 1017.12 46.7138 1017.12 48.8185ZM220.976 138.566C218.256 136.924 215.355 135.717 212.275 134.947C209.195 134.126 205.499 133.561 201.187 133.253C200.828 133.202 200.469 133.176 200.109 133.176C199.801 133.125 199.493 133.099 199.185 133.099C198.107 133.099 197.568 133.536 197.568 134.408C197.568 134.922 197.851 135.281 198.415 135.486C199.031 135.64 199.853 135.769 200.879 135.871C202.881 136.128 204.986 136.436 207.193 136.795C209.401 137.103 211.557 137.591 213.661 138.258C215.766 138.926 217.665 139.901 219.359 141.184C221.105 142.468 222.465 144.162 223.44 146.266C224.467 148.371 224.98 151.015 224.98 154.197C224.98 157.739 224.159 160.717 222.516 163.129C220.874 165.491 218.641 167.39 215.817 168.827C213.045 170.213 209.863 171.214 206.269 171.83C202.727 172.446 199.057 172.754 195.258 172.754C190.844 172.806 186.455 172.549 182.091 171.984C177.779 171.471 173.955 170.804 170.618 169.982L172.774 142.878C173.955 143.751 175.367 144.701 177.009 145.727C178.652 146.703 180.885 147.601 183.708 148.422C186.532 149.244 190.253 149.885 194.873 150.347C195.13 150.399 195.361 150.424 195.566 150.424C195.823 150.424 196.054 150.424 196.259 150.424C196.824 150.424 197.235 150.347 197.491 150.193C197.799 150.039 197.953 149.706 197.953 149.192C197.953 148.628 197.697 148.268 197.183 148.114C196.721 147.96 195.977 147.806 194.95 147.652C192.178 147.344 189.406 146.908 186.634 146.343C183.914 145.779 181.424 144.906 179.165 143.725C176.907 142.545 175.084 140.902 173.698 138.797C172.364 136.693 171.696 133.946 171.696 130.558C171.696 125.733 172.826 121.909 175.084 119.085C177.394 116.211 180.5 114.157 184.401 112.925C188.303 111.642 192.666 111 197.491 111C201.547 111 205.782 111.385 210.196 112.155C214.611 112.874 218.974 113.875 223.286 115.158L220.976 138.566ZM281.633 112.232V135.101H266.772V171.522H241.131V135.101H226.193V112.232H281.633ZM336.734 171.522H311.786L311.016 164.438H300.082L299.312 171.522H274.364L289.61 112.232H321.488L336.734 171.522ZM303.47 134.177L302.623 141.569H308.475L307.628 134.177H303.47ZM362.654 171.522H338.399V112.232H373.665C376.95 112.232 379.953 112.823 382.674 114.003C385.446 115.184 387.653 117.083 389.296 119.701C390.938 122.319 391.76 125.81 391.76 130.173C391.76 131.405 391.657 132.74 391.452 134.177C391.298 135.615 390.913 137.052 390.297 138.489C389.681 139.875 388.731 141.133 387.448 142.262C386.216 143.34 384.522 144.187 382.366 144.803L394.532 171.522H367.505L363.347 155.66H362.654V171.522ZM367.967 131.174H360.575V135.332H368.198C368.608 135.332 369.045 135.204 369.507 134.947C370.02 134.691 370.277 134.152 370.277 133.33C370.277 132.458 369.994 131.893 369.43 131.636C368.865 131.328 368.377 131.174 367.967 131.174ZM449.694 112.232V135.101H434.833V171.522H409.192V135.101H394.254V112.232H449.694ZM522.359 138.566C519.638 136.924 516.738 135.717 513.658 134.947C510.578 134.126 506.882 133.561 502.57 133.253C502.211 133.202 501.851 133.176 501.492 133.176C501.184 133.125 500.876 133.099 500.568 133.099C499.49 133.099 498.951 133.536 498.951 134.408C498.951 134.922 499.233 135.281 499.798 135.486C500.414 135.64 501.235 135.769 502.262 135.871C504.264 136.128 506.369 136.436 508.576 136.795C510.783 137.103 512.939 137.591 515.044 138.258C517.149 138.926 519.048 139.901 520.742 141.184C522.487 142.468 523.848 144.162 524.823 146.266C525.85 148.371 526.363 151.015 526.363 154.197C526.363 157.739 525.542 160.717 523.899 163.129C522.256 165.491 520.023 167.39 517.2 168.827C514.428 170.213 511.245 171.214 507.652 171.83C504.11 172.446 500.44 172.754 496.641 172.754C492.226 172.806 487.837 172.549 483.474 171.984C479.162 171.471 475.338 170.804 472.001 169.982L474.157 142.878C475.338 143.751 476.749 144.701 478.392 145.727C480.035 146.703 482.268 147.601 485.091 148.422C487.914 149.244 491.636 149.885 496.256 150.347C496.513 150.399 496.744 150.424 496.949 150.424C497.206 150.424 497.437 150.424 497.642 150.424C498.207 150.424 498.617 150.347 498.874 150.193C499.182 150.039 499.336 149.706 499.336 149.192C499.336 148.628 499.079 148.268 498.566 148.114C498.104 147.96 497.36 147.806 496.333 147.652C493.561 147.344 490.789 146.908 488.017 146.343C485.296 145.779 482.807 144.906 480.548 143.725C478.289 142.545 476.467 140.902 475.081 138.797C473.746 136.693 473.079 133.946 473.079 130.558C473.079 125.733 474.208 121.909 476.467 119.085C478.777 116.211 481.883 114.157 485.784 112.925C489.685 111.642 494.049 111 498.874 111C502.929 111 507.164 111.385 511.579 112.155C515.994 112.874 520.357 113.875 524.669 115.158L522.359 138.566ZM553.199 148.268V151.425H576.761V171.522H528.944V112.232H575.375V129.557H553.199V132.714H573.296V148.268H553.199ZM603.956 112.232V147.96H627.518V171.522H579.701V112.232H603.956ZM655.013 112.232V147.96H678.575V171.522H630.758V112.232H655.013ZM706.071 171.599L681.816 171.522V112.232H706.071V171.599ZM732.656 171.522H709.787V112.232H736.814L741.973 133.792H742.666L742.358 112.232H765.227V171.522H740.279L732.964 143.802H732.271L732.656 171.522ZM825.106 128.556V130.866L800.851 133.638V132.252C800.851 130.404 799.927 129.48 798.079 129.48C796.231 129.48 795.307 130.404 795.307 132.252V151.194C795.307 153.042 796.231 153.966 798.079 153.966C799.927 153.966 800.851 153.042 800.851 151.194V148.807H798.079V135.717H825.106V154.736C825.106 160.383 822.667 164.798 817.791 167.98C812.914 171.163 806.112 172.754 797.386 172.754C789.326 172.754 782.781 171.189 777.751 168.057C772.771 164.875 769.845 160.486 768.973 154.89C768.767 153.453 768.588 151.579 768.434 149.269C768.331 146.959 768.28 144.393 768.28 141.569C768.28 138.9 768.331 136.462 768.434 134.254C768.588 131.996 768.767 130.199 768.973 128.864C769.845 123.218 772.797 118.829 777.828 115.697C782.858 112.566 789.378 111 797.386 111C805.907 111 812.606 112.566 817.483 115.697C822.359 118.777 824.9 123.064 825.106 128.556ZM846.503 159.818V165.978C846.503 167.929 845.707 169.597 844.116 170.983C842.524 172.369 839.983 173.062 836.493 173.062C833.053 173.062 830.512 172.344 828.87 170.906C827.227 169.469 826.406 167.775 826.406 165.824V159.741C826.406 157.791 827.227 156.097 828.87 154.659C830.512 153.222 833.053 152.503 836.493 152.503C839.983 152.503 842.524 153.196 844.116 154.582C845.707 155.968 846.503 157.714 846.503 159.818Z" fill="#8B46DD"/>
</svg>
