<svg width="145" height="57" viewBox="0 0 145 57" fill="none" xmlns="http://www.w3.org/2000/svg">
<path d="M72.5 50C112.541 50 145 41.0457 145 30C145 18.9543 112.541 10 72.5 10C32.4594 10 0 18.9543 0 30C0 41.0457 32.4594 50 72.5 50Z" fill="black"/>
<path d="M27.4858 28.8231L28.1158 21.8301H35.1298L30.8878 33.9261V38.0001H23.8948V33.9261L19.6318 21.8301H26.6458L27.2968 28.8231H27.4858ZM48.6705 38.0001H41.8665L41.6565 36.0681H38.6745L38.4645 38.0001H31.6605L35.8185 21.8301H44.5125L48.6705 38.0001ZM39.5985 27.8151L39.3675 29.8311H40.9635L40.7325 27.8151H39.5985ZM55.5295 38.0001H48.9145V21.8301H58.5325C59.4285 21.8301 60.2475 21.9911 60.9895 22.3131C61.7455 22.6351 62.3475 23.1531 62.7955 23.8671C63.2435 24.5811 63.4675 25.5331 63.4675 26.7231C63.4675 27.0591 63.4395 27.4231 63.3835 27.8151C63.3415 28.2071 63.2365 28.5991 63.0685 28.9911C62.9005 29.3691 62.6415 29.7121 62.2915 30.0201C61.9555 30.3141 61.4935 30.5451 60.9055 30.7131L64.2235 38.0001H56.8525L55.7185 33.6741H55.5295V38.0001ZM56.9785 26.9961H54.9625V28.1301H57.0415C57.1535 28.1301 57.2725 28.0951 57.3985 28.0251C57.5385 27.9551 57.6085 27.8081 57.6085 27.5841C57.6085 27.3461 57.5315 27.1921 57.3775 27.1221C57.2235 27.0381 57.0905 26.9961 56.9785 26.9961ZM64.516 21.8301H70.942C72.58 21.8301 73.931 21.9701 74.995 22.2501C76.059 22.5161 76.899 22.9011 77.515 23.4051C78.145 23.9091 78.607 24.5181 78.901 25.2321C79.195 25.9461 79.377 26.7511 79.447 27.6471C79.531 28.5291 79.566 29.4811 79.552 30.5031C79.538 31.2871 79.503 32.0501 79.447 32.7921C79.391 33.5341 79.23 34.2201 78.964 34.8501C78.712 35.4801 78.285 36.0331 77.683 36.5091C77.081 36.9851 76.234 37.3561 75.142 37.6221C74.05 37.8741 72.636 38.0001 70.9 38.0001H64.516V21.8301ZM72.454 32.2041V27.6681C72.454 27.6121 72.426 27.5071 72.37 27.3531C72.328 27.1851 72.167 27.1011 71.887 27.1011C71.607 27.1011 71.439 27.1851 71.383 27.3531C71.341 27.5071 71.32 27.6121 71.32 27.6681V32.2041C71.32 32.2461 71.341 32.3511 71.383 32.5191C71.439 32.6871 71.607 32.7711 71.887 32.7711C72.167 32.7711 72.328 32.6871 72.37 32.5191C72.426 32.3511 72.454 32.2461 72.454 32.2041ZM95.8032 38.0001H88.9992L88.7892 36.0681H85.8072L85.5972 38.0001H78.7932L82.9512 21.8301H91.6452L95.8032 38.0001ZM86.7312 27.8151L86.5002 29.8311H88.0962L87.8652 27.8151H86.7312ZM110.538 26.2821V26.9121L103.923 27.6681V27.2901C103.923 26.7861 103.671 26.5341 103.167 26.5341C102.663 26.5341 102.411 26.7861 102.411 27.2901V32.4561C102.411 32.9601 102.663 33.2121 103.167 33.2121C103.671 33.2121 103.923 32.9601 103.923 32.4561V31.8051H103.167V28.2351H110.538V33.4221C110.538 34.9621 109.873 36.1661 108.543 37.0341C107.213 37.9021 105.358 38.3361 102.978 38.3361C100.78 38.3361 98.9943 37.9091 97.6223 37.0551C96.2643 36.1871 95.4663 34.9901 95.2283 33.4641C95.1723 33.0721 95.1233 32.5611 95.0813 31.9311C95.0533 31.3011 95.0393 30.6011 95.0393 29.8311C95.0393 29.1031 95.0533 28.4381 95.0813 27.8361C95.1233 27.2201 95.1723 26.7301 95.2283 26.3661C95.4663 24.8261 96.2713 23.6291 97.6433 22.7751C99.0153 21.9211 100.794 21.4941 102.978 21.4941C105.302 21.4941 107.129 21.9211 108.459 22.7751C109.789 23.6151 110.482 24.7841 110.538 26.2821ZM117.833 31.6581V32.5191H124.259V38.0001H111.218V21.8301H123.881V26.5551H117.833V27.4161H123.314V31.6581H117.833Z" fill="white"/>
</svg>
